<svg xmlns="http://www.w3.org/2000/svg" width="128" height="128" class="icon" viewBox="0 0 1024 1024"><defs><style/></defs><path d="M617.984 1024H84.992c-17.92 0-31.744-14.336-31.744-32.256V32.256C53.248 14.336 67.584 0 84.992 0h533.504c17.92 0 32.256 14.336 32.256 32.256v960c-.512 17.408-14.848 31.744-32.768 31.744zm-501.248-64H586.24V64H116.736v896z"/><path d="M290.816 242.688h-74.24c-17.92 0-32.256-14.336-32.256-32.256s14.336-32.256 32.256-32.256h74.752c17.92 0 32.256 14.336 32.256 32.256s-14.848 32.256-32.768 32.256zm195.584 0h-74.24c-17.92 0-32.256-14.336-32.256-32.256s14.336-32.256 32.256-32.256h74.24c17.92 0 32.256 14.336 32.256 32.256s-14.336 32.256-32.256 32.256zM290.816 395.264h-74.24c-17.92 0-32.256-14.336-32.256-32.256s14.336-32.256 32.256-32.256h74.752c17.92 0 32.256 14.336 32.256 32.256s-14.848 32.256-32.768 32.256zm195.584 0h-74.24c-17.92 0-32.256-14.336-32.256-32.256s14.336-32.256 32.256-32.256h74.24c17.92 0 32.256 14.336 32.256 32.256s-14.336 32.256-32.256 32.256zM290.816 547.84h-74.24c-17.92 0-32.256-14.336-32.256-32.256s14.336-32.256 32.256-32.256h74.752c17.92 0 32.256 14.336 32.256 32.256s-14.848 32.256-32.768 32.256zm195.584 0h-74.24c-17.92 0-32.256-14.336-32.256-32.256s14.336-32.256 32.256-32.256h74.24c17.92 0 32.256 14.336 32.256 32.256S504.32 547.84 486.4 547.84zM290.816 700.928h-74.24c-17.92 0-32.256-14.336-32.256-32.256s14.336-31.744 32.256-31.744h74.752c17.92 0 32.256 14.336 32.256 31.744-.512 17.92-14.848 32.256-32.768 32.256zm195.584 0h-74.24c-17.92 0-32.256-14.336-32.256-32.256s14.336-31.744 32.256-31.744h74.24c17.92 0 32.256 14.336 32.256 31.744 0 17.92-14.336 32.256-32.256 32.256zM290.816 853.504h-74.24c-17.92 0-32.256-14.336-32.256-32.256s14.336-32.256 32.256-32.256h74.752c17.92 0 32.256 14.336 32.256 32.256s-14.848 32.256-32.768 32.256zm195.584 0h-74.24c-17.92 0-32.256-14.336-32.256-32.256s14.336-32.256 32.256-32.256h74.24c17.92 0 32.256 14.336 32.256 32.256s-14.336 32.256-32.256 32.256zM939.008 1024h-320c-17.92 0-32.256-14.336-32.256-32.256s14.336-32.256 32.256-32.256h287.744l-.512-672.768-294.912-80.384c-16.896-4.608-27.136-22.016-22.528-39.424 4.608-16.896 22.016-27.136 39.424-22.528l318.464 87.04c13.824 3.584 23.552 16.384 23.552 30.72l1.024 729.6c0 8.704-3.584 16.896-9.216 22.528-6.144 6.144-14.336 9.728-23.04 9.728z"/><path d="M992.256 1024h-960C14.336 1024 0 1009.664 0 991.744s14.336-32.256 32.256-32.256h960c17.92 0 32.256 14.336 32.256 32.256S1009.664 1024 992.256 1024z"/></svg>
