<svg t="1569479369986" class="icon" viewBox="0 0 1024 1024" version="1.1" xmlns="http://www.w3.org/2000/svg" p-id="2017" width="200" height="200"><path d="M862 137h58V87H104v50h58c0.7 172.9 97.3 320 232.2 375C259.3 567.1 162.7 714.1 162 887h-58v50h816v-50h-58c-0.7-172.9-97.3-320-232.2-375C764.7 456.9 861.3 309.9 862 137z m-50 750H212c0.8-192.2 135.1-348.2 300-348.2S811.2 694.9 812 887zM512 485.2c-164.9 0-299.2-156.1-300-348.2h600c-0.8 192.1-135.1 348.2-300 348.2z" fill="" p-id="2018"></path></svg>