<svg xmlns="http://www.w3.org/2000/svg" width="128" height="128" class="icon" viewBox="0 0 1024 1024"><defs><style/></defs><path d="M969.6 784L859.2 592c-6.4-9.6-16-16-27.2-16H609.6c-11.2 0-22.4 6.4-27.2 16L472 784c-6.4 9.6-6.4 22.4 0 32l110.4 192c6.4 9.6 16 16 27.2 16H832c11.2 0 22.4-6.4 27.2-16l110.4-192c4.8-9.6 4.8-22.4 0-32zM812.8 960H627.2l-92.8-160 92.8-160h184L904 800l-91.2 160z"/><path d="M720 688c-62.4 0-112 49.6-112 112s49.6 112 112 112 112-49.6 112-112-49.6-112-112-112zm0 160c-27.2 0-48-20.8-48-48s20.8-48 48-48 48 20.8 48 48-20.8 48-48 48z"/><path d="M224 768h192c17.6 0 32-14.4 32-32s-14.4-32-32-32H224c-36.8 0-68.8 12.8-96 32V96c0-17.6 14.4-32 32-32h704c17.6 0 32 14.4 32 32v448c0 17.6 14.4 32 32 32s32-14.4 32-32V96c0-52.8-43.2-96-96-96H160c-52.8 0-96 43.2-96 96v768c0 88 72 160 160 160h192c17.6 0 32-14.4 32-32s-14.4-32-32-32H224c-52.8 0-96-43.2-96-96s43.2-96 96-96z"/><path d="M768 224c0-17.6-14.4-32-32-32H288c-17.6 0-32 14.4-32 32s14.4 32 32 32h448c17.6 0 32-14.4 32-32zM288 384c-17.6 0-32 14.4-32 32s14.4 32 32 32h256c17.6 0 32-14.4 32-32s-14.4-32-32-32H288z"/></svg>
