<svg xmlns="http://www.w3.org/2000/svg" width="128" height="128" class="icon" viewBox="0 0 1024 1024"><path d="M927.076 390.04H97.869c-9.671 0-17.519 9.174-17.519 20.475v204.227c0 11.303 7.848 20.475 17.519 20.475h829.217c9.671 0 17.517-9.172 17.517-20.475V410.516c-.01-11.302-7.846-20.477-17.527-20.477zM814.352 563.821H579.604c-24.181 0-43.795-22.914-43.795-51.189s19.614-51.186 43.795-51.186h234.748c24.186 0 43.798 22.911 43.798 51.186s-19.612 51.19-43.798 51.19zm112.724 147.911H97.869c-9.671 0-17.519 9.172-17.519 20.473v204.228c0 11.303 7.848 20.475 17.519 20.475h829.217c9.671 0 17.517-9.172 17.517-20.475V732.206c-.01-11.301-7.846-20.473-17.527-20.473zM814.352 881.184H308.055c-24.18 0-43.794-22.914-43.794-51.189s19.613-51.186 43.794-51.186h506.297c24.186 0 43.798 22.911 43.798 51.186s-19.612 51.19-43.798 51.19zM927.076 68.36H97.869c-9.671 0-17.519 9.175-17.519 20.475v204.218c0 11.302 7.848 20.474 17.519 20.474h829.217c9.671 0 17.517-9.172 17.517-20.474V88.834c-.01-11.312-7.846-20.475-17.527-20.475zM814.352 246.46H470.99c-24.186 0-43.794-22.912-43.794-51.189 0-28.275 19.61-51.186 43.794-51.186h343.364c24.186 0 43.798 22.911 43.798 51.186-.001 28.277-19.613 51.19-43.799 51.19z"/></svg>
