<svg xmlns="http://www.w3.org/2000/svg" width="128" height="128" class="icon" viewBox="0 0 1024 1024"><path d="M956.018 674.702l-111.36-163.555a124.658 124.658 0 0 0-49.778-53.05A28.444 28.444 0 0 0 796.444 448V128a28.444 28.444 0 0 0-56.888 0v321.351l-199.112-.569V128a28.444 28.444 0 0 0-56.888 0v320.64L284.444 448V128a28.444 28.444 0 0 0-56.888 0v320a28.444 28.444 0 0 0 .568 5.689c-23.822 9.671-41.457 30.364-55.324 56.889L68.551 674.844A205.653 205.653 0 0 0 64 704.996v189.653A65.209 65.209 0 0 0 129.209 960H894.79A65.209 65.209 0 0 0 960 894.791V704.996a220.018 220.018 0 0 0-3.982-30.294zm-714.24-146.915a11.449 11.449 0 0 1 11.235-8.676l512 1.422a11.52 11.52 0 0 1 11.023 8.534L860.444 640H170.667zm647.11 361.102H135.112V711.11H888.89z"/><path d="M192 768h64v64h-64zm128 0h64v64h-64z"/></svg>
