<svg t="1574653537649" class="icon" viewBox="0 0 1024 1024" version="1.1" xmlns="http://www.w3.org/2000/svg" p-id="2186" width="200" height="200"><path d="M42.72 918.144h213.504V341.632H42.688v576.512z m64.032-512.448h64.064v106.752H106.752v-106.752z m0 149.472h64.064v85.408H106.752v-85.408z m0 149.44h64.064v85.408H106.752v-85.408z m192.16 213.536h341.632V64.064H298.912v854.08z m298.944-128.128h-106.752v-85.408h106.752v85.408z m-170.816-128.096v-85.408h85.408v85.408h-85.408z m170.816-128.128h-106.752v-85.408h106.752v85.408zM491.104 170.816h106.752v85.408h-106.752V170.816z m0 234.88h-85.408V298.944h85.408v106.752z m-149.472-234.88h106.752v85.408h-106.752V170.816z m0 277.568h106.752v85.408h-106.752v-85.408z m0 256.224h106.752v85.408h-106.752v-85.408z m576.512-277.568V298.912h-21.344V192.16h-42.688V128.096h-64.064v170.816h-42.688v128.096h-64.064v491.104h298.912V427.008h-64.064z m-170.816 85.408h85.408v64.064h-85.408v-64.064z m85.408 106.752h85.408v85.408h-85.408V619.2z m-85.408 170.816h85.408v64.064h-85.408v-64.064z" p-id="2187"></path></svg>