<svg t="1573801804582" class="icon" viewBox="0 0 1024 1024" version="1.1" xmlns="http://www.w3.org/2000/svg" p-id="2063" width="200" height="200"><path d="M853.333333 213.333333v597.333334h21.333334a21.333333 21.333333 0 0 1 0 42.666666h-682.666667a21.333333 21.333333 0 0 1 0-42.666666H213.333333V213.333333h-21.333333a21.333333 21.333333 0 0 1 0-42.666666h682.666667a21.333333 21.333333 0 0 1 0 42.666666H853.333333zM298.666667 298.666667v256h469.632V298.666667H298.666667z m42.666666 42.666666h384.298667v170.666667H341.333333V341.333333z m85.333334 298.666667v170.666667h85.333333v-170.666667h-85.333333z m128 0v170.666667h85.333333v-170.666667h-85.333333z" p-id="2064"></path></svg>