<svg t="1608795888484" class="icon" viewBox="0 0 1024 1024" version="1.1" xmlns="http://www.w3.org/2000/svg" p-id="3191" width="200" height="200"><path d="M585.142857 877.714286v146.285714H73.142857a73.142857 73.142857 0 0 1-73.142857-73.142857v-73.142857h585.142857z m438.857143 0v73.142857a73.142857 73.142857 0 0 1-73.142857 73.142857h-219.428572v-146.285714h292.571429zM950.857143 0a73.142857 73.142857 0 0 1 73.142857 73.142857v658.285714H0V73.142857a73.142857 73.142857 0 0 1 73.142857-73.142857h877.714286zM595.894857 59.757714c-52.077714 29.988571-69.558857 103.058286-50.102857 181.686857l3.803429 13.897143-148.333715 85.723429c-59.977143-63.780571-137.508571-89.6-192.585143-57.782857-52.150857 30.134857-69.632 103.131429-50.176 181.76l3.803429 13.897143 126.683429-73.142858 73.142857 126.756572-126.610286 73.142857 10.166857 10.24c58.368 56.173714 130.340571 77.531429 182.418286 47.469714 52.077714-30.061714 69.558857-103.131429 50.176-181.686857l-3.876572-13.897143 148.333715-85.723428c59.977143 63.780571 137.508571 89.526857 192.585143 57.709714 52.077714-30.061714 69.632-103.131429 50.176-181.686857l-3.803429-13.897143-126.683429 73.069714-73.142857-126.683428 126.683429-73.142857C728.502857 53.686857 650.971429 27.794286 595.894857 59.684571z" p-id="3192" fill="#cdcdcd"></path></svg>