<svg xmlns="http://www.w3.org/2000/svg" width="256" height="256" class="icon" viewBox="0 0 1024 1024"><defs><style/></defs><path d="M320.616 1023.996c-67.46-139.735-31.543-219.902 20.147-295.246 56.506-82.356 71.403-164.27 71.403-164.27s44.243 57.817 26.721 148.063c78.407-87.613 93.303-226.477 81.476-279.92 177.849 123.974 253.636 392.499 151.126 591.373 544.502-307.51 135.363-767.461 64.398-819.595 23.654 52.134 28.031 139.742-19.717 182.233C635.137 79.554 434.51 16.472 434.51 16.472c23.654 158.574-86.296 331.606-191.87 461.269-3.942-63.074-7.884-106.882-41.174-167.338-7.449 114.772-95.493 208.52-119.146 323.285-31.98 155.948 24.089 269.84 238.297 390.308zm0 0"/></svg>
