<svg t="1572589385285" class="icon" viewBox="0 0 1024 1024" version="1.1" xmlns="http://www.w3.org/2000/svg" p-id="1788" width="200" height="200"><path d="M297.536 183.744 733.76 184.064 652.864 48.128 366.784 50.048Z" p-id="1789"></path><path d="M733.452019 348.857651l-212.032-0.975347 0.515494-112.064 212.032 0.975347-0.515494 112.064Z" p-id="1790"></path><path d="M298.048 347.392 476.032 347.968 476.416 235.968 297.728 235.392Z" p-id="1791"></path><path d="M387.904 392.64l183.936 0 0 112.064-183.936 0 0-112.064Z" p-id="1792"></path><path d="M733.243405 505.24425l-116.16-0.441408 0.425843-112.064 116.16 0.441408-0.425843 112.064Z" p-id="1793"></path><path d="M521.472 661.12 733.056 662.016 733.376 549.952 521.28 549.184Z" p-id="1794"></path><path d="M476.370477 661.06144l-179.008-0.554925 0.346803-111.872 179.008 0.554925-0.346803 111.872Z" p-id="1795"></path><path d="M598.015539 818.243072l-207.168-0.662938 0.3584-112 207.168 0.662938-0.3584 112Z" p-id="1796"></path><path d="M297.472 705.28l48.704 0 0 112-48.704 0 0-112Z" p-id="1797"></path><path d="M295.744 390.72l48.704 0 0 112-48.704 0 0-112Z" p-id="1798"></path><path d="M642.496 706.56l90.432 0 0 112-90.432 0 0-112Z" p-id="1799"></path><path d="M732.590611 975.820064l-210.112-0.651347 0.3472-112 210.112 0.651347-0.3472 112Z" p-id="1800"></path><path d="M478.162432 975.021229l-181.184-0.56167 0.3472-112 181.184 0.56167-0.3472 112Z" p-id="1801"></path><path d="M82.56 733.248 83.456 481.152 26.368 480.896 144.448 337.472 261.696 481.728 205.696 481.536 204.416 855.296 204.416 855.872 0 855.168 0.384 733.056Z" p-id="1802"></path><path d="M941.824 735.552 942.656 483.456 999.68 483.648 882.496 339.456 764.48 482.816 820.416 483.072 819.2 856.832 819.136 857.408 1023.616 858.048 1024 735.872Z" p-id="1803"></path></svg>