<svg t="1597109348828" class="icon" viewBox="0 0 1024 1024" version="1.1" xmlns="http://www.w3.org/2000/svg" p-id="2958" width="200" height="200"><path d="M520.084211 732.968421c-134.736842 16.168421-212.884211-105.094737-199.410527-177.852632 26.947368-121.263158 80.842105-118.568421 123.957895-194.021052 29.642105-53.894737 18.863158-107.789474 18.863158-107.789474s78.147368 35.031579 102.4 115.873684c13.473684 51.2-24.252632 113.178947-16.168421 148.210527 5.389474 18.863158 21.557895 48.505263 61.978947 45.810526 72.757895-5.389474 61.978947-88.926316 61.978948-88.926316s148.210526 183.242105-153.6 258.694737z" fill="#10ABFF" opacity=".4" p-id="2959"></path><path d="M900.042105 218.273684c0-2.694737 0-2.694737 0 0v-5.389473s0-2.694737-2.694737-2.694737c0 0 0-2.694737-2.694736-2.694737l-2.694737-2.694737-2.694737-2.694737h-2.694737-2.694737c-91.621053-13.473684-261.389474-48.505263-358.4-161.68421h-2.694737l-2.694736-2.694737h-2.694737-2.694737-2.694737-2.694737s-2.694737 0-2.694737 2.694737h-2.694737C401.515789 153.6 231.747368 188.631579 140.126316 199.410526h-2.694737H134.736842s-2.694737 0-2.694737 2.694737l-2.694737 2.694737-2.694736 2.694737s0 2.694737-2.694737 2.694737V592.842105c16.168421 185.936842 269.473684 331.452632 379.957894 390.736842 2.694737 2.694737 5.389474 2.694737 8.084211 2.694737 2.694737 0 5.389474 0 8.084211-2.694737 107.789474-61.978947 363.789474-204.8 379.957894-390.736842V218.273684zM512 948.547368C404.210526 886.568421 175.157895 754.526316 161.684211 592.842105V234.442105c94.315789-13.473684 250.610526-51.2 350.315789-153.6 99.705263 102.4 256 140.126316 350.315789 153.6V592.842105c-13.473684 161.684211-242.526316 293.726316-350.315789 355.705263z" fill="#10ABFF" p-id="2960"></path><path d="M681.768421 455.410526c-2.694737 0-2.694737-2.694737-5.389474-2.694737H673.684211 665.6h-2.694737s-2.694737 0-2.694737 2.694737l-2.694737 2.694737s-2.694737 0-2.694736 2.694737c0 0 0 2.694737-2.694737 2.694737V471.578947c5.389474 18.863158 2.694737 35.031579-8.084211 48.505264-8.084211 10.778947-21.557895 16.168421-37.726316 16.168421-26.947368 0-35.031579-10.778947-37.726315-13.473685-8.084211-10.778947-13.473684-37.726316 10.778947-105.094736 21.557895-67.368421-51.2-158.989474-113.178947-188.631579h-2.694737-2.694737-2.694737-2.694737-2.694737s-2.694737 0-2.694736 2.694736l-2.694737 2.694737-2.694737 2.694737v13.473684c5.389474 37.726316 5.389474 78.147368-35.031579 123.957895-5.389474 8.084211-13.473684 13.473684-21.557895 21.557895-40.421053 43.115789-83.536842 86.231579-86.231579 156.294737-8.084211 156.294737 123.957895 188.631579 150.905263 194.021052 18.863158 2.694737 37.726316 5.389474 53.894737 5.389474 16.168421 0 32.336842-2.694737 48.505263-5.389474 88.926316-16.168421 148.210526-70.063158 164.378948-148.210526 10.778947-59.284211-2.694737-118.568421-37.726316-142.821053zM436.547368 727.578947z m245.221053-137.431579c-8.084211 35.031579-35.031579 99.705263-134.736842 118.568421-26.947368 5.389474-56.589474 5.389474-88.926316 0-29.642105-5.389474-123.957895-32.336842-118.568421-153.6 2.694737-53.894737 35.031579-91.621053 75.452632-132.042105l21.557894-21.557895c37.726316-40.421053 45.810526-80.842105 48.505264-115.873684 40.421053 32.336842 75.452632 88.926316 64.673684 123.957895-24.252632 64.673684-26.947368 113.178947-5.389474 140.126316 13.473684 18.863158 37.726316 29.642105 67.368421 29.642105 26.947368 0 51.2-10.778947 67.368421-32.336842 2.694737-2.694737 5.389474-8.084211 8.084211-13.473684 0 18.863158 0 37.726316-5.389474 56.589473z" fill="#10ABFF" p-id="2961"></path></svg>