<svg t="1572591339092" class="icon" viewBox="0 0 1024 1024" version="1.1" xmlns="http://www.w3.org/2000/svg" p-id="3180" width="200" height="200"><path d="M852.976606 28.492797c-3.2256 0-6.553599 0.24576-9.989119 0.86016l-252.702695 42.035196c-34.063357 5.678079-61.905914 38.625276-61.905914 73.123833H339.727377c-181.898222 0-250.598375-105.226229-253.383654-109.777909a31.513597 31.513597 0 0 0-43.069436-10.168319 31.354877 31.354877 0 0 0-10.316799 43.197435c2.0736 3.44064 34.554877 53.514235 107.540469 92.671991-48.506875 39.167996-113.274869 114.790389-112.209909 239.011816v404.12668a31.375357 31.375357 0 1 0 62.750714 0V399.12444c-1.17248-131.015667 89.313271-193.756141 118.543348-210.580459 36.874236 11.054079 79.590392 18.708478 130.145267 18.708478h32.972797v35.374077L167.818274 367.846363a31.575037 31.575037 0 0 0-14.986238 26.803198l0.24576 597.99034A31.308797 31.308797 0 0 0 184.437793 1023.999898h439.306196a31.370237 31.370237 0 0 0 31.390717-31.359997l0.16384-597.99034a31.487997 31.487997 0 0 0-14.684159-26.583038L435.404808 239.436776V207.257579h92.96895c0 34.483197 27.842557 67.404793 61.905914 73.108473l252.702695 42.019836a54.271995 54.271995 0 0 0 9.989119 0.89088c29.368317 0 51.916795-22.195198 51.916795-53.283835V81.766392c0-31.078397-22.543358-53.273595-51.911675-53.273595zM592.409592 772.198323h-127.743987v-188.446701h127.851507l-0.10752 188.446701z m0.16384-360.212444l-0.05632 109.045749H433.223688a31.385597 31.385597 0 0 0-31.390717 31.359997v251.176935a31.416317 31.416317 0 0 0 31.390717 31.416317h159.185904l-0.10752 126.269427H215.80291l-0.24576-549.017545 191.134701-116.787189 185.881581 116.536309z m249.538535-153.308145l-241.566696-40.212476c-3.81952-0.6656-9.446399-7.357439-9.446399-11.212799V144.517106c0-3.90656 5.626879-10.562559 9.446399-11.217919l241.566696-40.207356v165.585903z m0 0" p-id="3181"></path></svg>