<svg xmlns="http://www.w3.org/2000/svg" width="128" height="128" class="icon" viewBox="0 0 1024 1024"><path d="M786.625 421.688l161.5-90.469L516.719 53.781 75.844 340.906l164.75 87.219-164.75 93.656L240.594 609l-164.75 93.688L517.188 970.25 948.125 693l-161.5-90.438 161.5-90.438-161.5-90.436zM516.938 114.594L839.75 331.219 516.469 548.125 185.875 339.25l331.063-224.656zM296.063 457.469l221.125 150.969L732.5 452l107.25 60.125L516.469 729 185.875 520.125l110.188-62.656zM839.75 693L516.469 909.938 185.875 701l110.188-62.625 221.125 150.938L732.5 632.875 839.75 693z"/></svg>
