<svg t="1569401489693" class="icon" viewBox="0 0 1024 1024" version="1.1" xmlns="http://www.w3.org/2000/svg" p-id="5216" width="200" height="200"><path d="M884.311541 148.530848c0-37.22481-40.113603-64.513316-122.637108-83.426061-66.800405-15.307637-155.184385-23.738657-248.868067-23.738657s-182.069709 8.432043-248.871137 23.738657c-82.521458 18.910699-122.635061 46.201252-122.635061 83.426061 0 2.085498 0.145309 4.134157 0.397043 6.157233-0.239454 1.487887-0.397043 3.003404-0.397043 4.558829l0 721.580273c0 4.030803 0.844228 7.862062 2.350534 11.339256 9.621125 29.714765 49.208748 52.226478 120.284527 68.514443C330.73768 975.989543 419.122683 984.420563 512.807389 984.420563s182.067662-8.432043 248.868067-23.738657c71.078849-16.287965 110.666472-38.800701 120.287597-68.51649 1.505283-3.477194 2.349511-7.30743 2.349511-11.338233L884.312564 159.247934c0-1.555425-0.158612-3.070942-0.397043-4.558829C884.166231 152.665005 884.311541 150.616346 884.311541 148.530848zM292.810882 117.365035c60.652382-12.151761 138.780787-18.844184 219.995483-18.844184 81.21265 0 159.344125 6.692423 219.99446 18.844184 55.971779 11.213389 81.811284 24.040533 91.199095 31.165814-9.387811 7.125281-35.226293 19.952424-91.199095 31.165814-60.650335 12.151761-138.780787 18.844184-219.99446 18.844184-81.214696 0-159.344125-6.692423-219.995483-18.844184-55.970756-11.213389-81.811284-24.040533-91.197048-31.165814C210.999598 141.405567 236.840126 128.578424 292.810882 117.365035zM732.800825 908.421658c-60.650335 12.153808-138.780787 18.844184-219.99446 18.844184-81.214696 0-159.344125-6.690376-219.995483-18.844184-64.407915-12.904914-88.905866-27.939329-94.355995-33.971719L198.454888 724.293057c0.490164 0.024559 0.973164 0.073678 1.468444 0.073678l114.557082 0c15.783475 0 28.577872-12.795421 28.577872-28.577872 0-15.781428-12.794397-28.577872-28.577872-28.577872L199.924355 667.210991c-0.496304 0-0.979304 0.049119-1.468444 0.073678l0-91.598184c0.490164 0.024559 0.973164 0.073678 1.468444 0.073678l114.557082 0c15.783475 0 28.577872-12.795421 28.577872-28.577872 0-15.781428-12.794397-28.577872-28.577872-28.577872L199.924355 518.604418c-0.496304 0-0.979304 0.049119-1.468444 0.073678L198.455911 427.087075c0.490164 0.024559 0.973164 0.073678 1.468444 0.073678l114.557082 0c15.783475 0 28.577872-12.795421 28.577872-28.577872 0-15.781428-12.794397-28.577872-28.577872-28.577872L199.924355 370.005009c-0.496304 0-0.979304 0.049119-1.468444 0.073678L198.455911 211.515345c17.660218 7.67889 39.45664 14.477736 65.48034 20.441565 66.802452 15.307637 155.187455 23.738657 248.871137 23.738657s182.067662-8.432043 248.868067-23.738657c26.024723-5.963829 47.821145-12.763698 65.481364-20.442588l0 662.937664C821.700551 880.484376 797.200554 895.517767 732.800825 908.421658zM720.343095 524.186554c-5.377474-10.180873-35.437094-65.549925-98.257861-153.793712-0.01228-0.016373-0.026606-0.031722-0.037862-0.048095-0.447185-0.624217-0.935302-1.223874-1.436722-1.816369-0.128937-0.152473-0.246617-0.319272-0.3776-0.468674-0.319272-0.360204-0.673335-0.696872-1.01205-1.042749-0.346901-0.355087-0.682545-0.724501-1.043772-1.058099-0.1361-0.125867-0.288572-0.237407-0.427742-0.361227-0.592494-0.525979-1.194198-1.036609-1.821485-1.506307-0.014326-0.010233-0.026606-0.023536-0.040932-0.033769-0.12075-0.090051-0.25071-0.161682-0.372483-0.249687-0.63138-0.455371-1.270946-0.896416-1.932002-1.295506-0.317225-0.192382-0.645706-0.354064-0.968048-0.533143-0.480954-0.26606-0.958838-0.537236-1.453095-0.773619-0.474814-0.228197-0.958838-0.420579-1.441838-0.620124-0.358157-0.147356-0.710175-0.308015-1.073448-0.440022-0.560772-0.205685-1.12973-0.37453-1.698688-0.544399-0.306992-0.091074-0.60989-0.193405-0.918929-0.274246-0.578168-0.150426-1.159406-0.26606-1.74269-0.379647-0.324388-0.063445-0.64673-0.137123-0.973164-0.189312-0.540306-0.085958-1.082658-0.140193-1.62501-0.194428-0.38681-0.039909-0.77055-0.086981-1.158383-0.110517-0.469698-0.027629-0.938372-0.028653-1.408069-0.032746-0.468674-0.00614-0.937348-0.01535-1.406023 0.002047-0.38681 0.01535-0.771573 0.053212-1.157359 0.083911-0.545422 0.042979-1.089821 0.084934-1.633197 0.158612-0.325411 0.045025-0.64673 0.110517-0.971118 0.166799-0.587378 0.100284-1.173732 0.203638-1.755993 0.341784-0.310062 0.073678-0.61296 0.168846-0.920976 0.252757-0.575098 0.157589-1.149173 0.314155-1.717108 0.508583-0.357134 0.121773-0.704035 0.270153-1.056052 0.406253-0.49835 0.193405-0.997724 0.378623-1.487887 0.600681-0.469698 0.212848-0.925069 0.459464-1.384533 0.697895-0.358157 0.186242-0.720408 0.357134-1.072425 0.559748-0.601704 0.345877-1.182942 0.732687-1.76111 1.124614-0.186242 0.125867-0.379647 0.229221-0.563842 0.360204-0.022513 0.016373-0.041956 0.034792-0.063445 0.050142-0.555655 0.398066-1.086751 0.837064-1.616824 1.278109-0.220011 0.183172-0.456395 0.352017-0.670266 0.540306-0.286526 0.25378-0.551562 0.537236-0.828878 0.804319-0.430812 0.412392-0.86981 0.818645-1.270946 1.252527-0.065492 0.071631-0.124843 0.152473-0.190335 0.225127-0.590448 0.653893-1.153266 1.325182-1.674129 2.023076-0.00614 0.00921-0.014326 0.016373-0.020466 0.024559-65.97869 88.478124-94.050026 144.553257-99.197256 155.309228-12.821003 21.721721-19.620873 46.551222-19.620873 71.913866 0 78.151941 63.579037 141.736095 141.726885 141.736095 78.151941 0 141.736095-63.584154 141.736095-141.736095 0-25.765827-6.979972-50.984185-20.187785-72.925916L720.343095 524.186554zM598.802972 681.688727c-46.63411 0-84.572164-37.944194-84.572164-84.581374 0-15.000646 3.980661-29.661553 11.471262-42.507116 0.777713-1.182942 1.478677-2.436492 2.088568-3.76065 0.221034-0.476861 19.963681-42.807968 70.562079-114.589828 49.211818 71.980381 71.478961 114.670669 72.033593 115.741048 0.300852 0.584308 0.673335 1.104147 1.007957 1.658779l-0.013303 0.008186c7.852852 13.043061 12.003382 28.068266 12.003382 43.448558C683.383322 643.745557 645.440152 681.688727 598.802972 681.688727z" p-id="5217"></path></svg>