<svg xmlns="http://www.w3.org/2000/svg" width="128" height="128" class="icon" viewBox="0 0 1024 1024"><defs><style/></defs><path d="M683.202 875.393H226.185v-.137h115.432V718.252c0-1.092.341-2.048.341-3.071A170.178 170.178 0 0 1 512.41 548.893a170.178 170.178 0 0 1 170.52 166.288c0 1.023.272 2.047.272 3.071v157.14zm321.448-565.009l-107.923-70.037V104.709c0-23.346-19.113-42.323-42.732-42.323a42.46 42.46 0 0 0-42.664 42.323v80.345L535.824 6.206A42.118 42.118 0 0 0 511.659.063a41.913 41.913 0 0 0-23.483 6.143L19.35 310.452a42.05 42.05 0 0 0-12.288 58.57A43.005 43.005 0 0 0 66.11 381.24l19.319-12.56v519.273c0 39.729 36.247 72.085 80.823 72.085h692.318c44.575 0 80.822-32.356 80.822-72.085V369.158l18.5 12.014a43.005 43.005 0 0 0 59.115-12.287 41.981 41.981 0 0 0-12.356-58.501z"/></svg>
