<svg xmlns="http://www.w3.org/2000/svg" width="128" height="128" class="icon" viewBox="0 0 1024 1024"><defs><style/></defs><path d="M952.086 226.167c-3.131-30.697-25.763-55.84-55.96-62.18a1320.551 1320.551 0 0 1-180.95-41.663A672.3 672.3 0 0 1 553.5 27.81c-25.814-18.572-60.617-18.572-86.43 0a424.042 424.042 0 0 1-162.919 93.893 607.564 607.564 0 0 1-175.971 43.53c-30.86 4.98-53.974 30.955-55.342 62.18-1.373 31.23-1.867 156.077-1.867 293.496 0 248.726 293.497 489.37 440.247 489.37 146.747 0 395.473-169.754 435.273-485.634 9.95-186.547 5.594-298.477 5.594-298.477zm-466.36 481.288c-13.85 13.147-34.86 15.2-50.99 4.975l-8.082-6.842L257.52 529.617c-15.798-17.17-14.686-43.9 2.485-59.694 17.17-15.798 43.896-14.686 59.694 2.485l139.287 146.129 276.088-261.165c17.17-15.798 43.897-14.681 59.694 2.49 15.796 17.17 14.68 43.896-2.491 59.694"/></svg>
