<svg t="1609233693590" class="icon" viewBox="0 0 1024 1024" version="1.1" xmlns="http://www.w3.org/2000/svg" p-id="2086" width="200" height="200"><path d="M240.981333 196.778667V126.634667H791.893333v63.488c69.290667 10.581333 122.368 69.973333 122.368 142.336 0 79.872-64.512 144.554667-144.213333 144.554666H289.109333c-79.701333 0-144.213333-64.682667-144.213333-144.554666 0-62.805333 40.277333-115.712 96.085333-135.68z m463.36 175.104c24.234667 0 43.861333-19.456 43.861334-43.690667 0-24.234667-19.456-43.861333-43.690667-43.861333-24.234667 0-43.861333 19.456-43.861333 43.690666v0.170667c0 24.064 19.626667 43.690667 43.690666 43.690667z m-174.762666 0c24.234667 0 43.861333-19.456 43.861333-43.690667s-19.456-43.861333-43.690667-43.861333c-24.234667 0-43.861333 19.456-43.861333 43.690666v0.170667c0 24.064 19.456 43.690667 43.690667 43.690667z m-174.933334 0c24.234667 0 43.861333-19.456 43.861334-43.690667 0-24.234667-19.456-43.861333-43.690667-43.861333-24.234667 0-43.861333 19.456-43.861333 43.690666v0.170667c0 24.064 19.626667 43.690667 43.690666 43.690667zM709.973333 650.752l36.181334 45.568c-3.584 2.901333-9.557333 7.509333-18.261334 13.141333-15.36 10.069333-31.232 19.285333-47.786666 27.136-125.781333 61.098667-262.144 59.562667-389.12-47.274666l36.864-44.885334c107.349333 90.282667 220.16 91.648 327.168 39.424 14.165333-6.826667 27.989333-14.677333 41.130666-23.381333 4.778667-3.072 9.386667-6.314667 13.824-9.728z m-86.186666-32.256c-81.578667 39.594667-170.837333 38.570667-253.44-30.72l36.864-44.885333c62.976 52.906667 128.512 53.76 191.488 23.04 8.362667-4.096 16.384-8.704 24.234666-13.824 4.096-2.730667 6.656-4.608 7.68-5.461334l36.181334 45.568c-8.533333 6.997333-23.210667 16.725333-43.008 26.282667z m-113.322667 218.965333c69.290667 0.682667 136.533333-17.066667 198.826667-47.274666 19.797333-9.557333 38.912-20.48 57.173333-32.597334 5.802667-3.754667 10.752-7.338667 15.018667-10.410666 2.389333-1.877333 3.925333-3.072 4.608-3.584l36.181333 45.568c-4.608 3.754667-12.629333 9.728-24.064 17.408-20.48 13.482667-41.813333 25.770667-64 36.352-69.802667 33.792-145.408 53.930667-224.597333 53.077333-102.4-1.194667-201.898667-37.717333-295.082667-116.053333l36.864-44.885334c83.114667 69.632 169.813333 101.376 259.072 102.4z" p-id="2087" fill="#cdcdcd"></path></svg>