<svg t="1609748814073" class="icon" viewBox="0 0 1024 1024" version="1.1" xmlns="http://www.w3.org/2000/svg" p-id="2641" width="200" height="200"><path d="M249.05 959.56h526.46c49.21 0 95.58-19.25 130.57-54.22 34.99-34.96 54.27-81.29 54.27-130.46V248.9c0-49.16-19.27-95.5-54.27-130.46s-81.37-54.22-130.57-54.22H249.05c-49.21 0-95.58 19.25-130.57 54.22S64.21 199.73 64.21 248.9v525.99c0 49.16 19.27 95.5 54.27 130.46 34.99 34.95 81.36 54.21 130.57 54.21zM138.15 248.9c0-61.1 49.75-110.8 110.9-110.8h526.46c61.15 0 110.9 49.71 110.9 110.8v525.99c0 61.1-49.75 110.8-110.9 110.8H249.05c-61.15 0-110.9-49.71-110.9-110.8V248.9z" fill="#cdcdcd" p-id="2642"></path><path d="M269.28 679.2h487.19c40.77 0 73.94-33.14 73.94-73.87V263.48c0-40.73-33.17-73.87-73.94-73.87H269.28c-40.77 0-73.94 33.14-73.94 73.87v341.85c0 40.73 33.17 73.87 73.94 73.87z m0-415.66c0.02-0.02 0.04-0.05 0.07-0.07H756.4c0.02 0.02 0.05 0.04 0.07 0.07v341.72c-0.02 0.02-0.04 0.05-0.07 0.07H269.35c-0.02-0.02-0.05-0.04-0.07-0.07V263.54zM793.44 751.9H654.81c-20.42 0-36.97 16.54-36.97 36.93s16.55 36.93 36.97 36.93h138.63c20.42 0 36.97-16.54 36.97-36.93s-16.56-36.93-36.97-36.93zM373.14 751.9H234.51c-20.42 0-36.97 16.54-36.97 36.93s16.55 36.93 36.97 36.93h138.63c20.42 0 36.97-16.54 36.97-36.93s-16.56-36.93-36.97-36.93z" fill="#cdcdcd" p-id="2643"></path></svg>