<svg xmlns="http://www.w3.org/2000/svg" width="128" height="128" class="icon" viewBox="0 0 1024 1024"><defs><style/></defs><path d="M896 832H624l144 192H256l144-192H128A128 128 0 0 1 0 704V128A128 128 0 0 1 128 0h768a128 128 0 0 1 128 128v576a128 128 0 0 1-128 128zM384 960h256l-96-128h-64l-96 128zm576-832a64 64 0 0 0-64-64H128a64 64 0 0 0-64 64v576a64 64 0 0 0 64 64h768a64 64 0 0 0 64-64V128zM768 576a64 64 0 1 1-64 64c0-1.344.64-2.432.768-3.712l-122.304-81.536a127.36 127.36 0 0 1-140.928 0l-122.304 81.536c.128 1.28.768 2.368.768 3.712a64 64 0 1 1-64-64c10.112 0 19.328 2.816 27.84 6.976l114.88-76.608A126.272 126.272 0 0 1 384 448c0-23.68 6.848-45.632 18.112-64.64L271.616 252.864C266.496 254.144 261.504 256 256 256a64 64 0 1 1 64-64c0 5.504-1.856 10.496-3.136 15.616L447.36 338.112a126.336 126.336 0 0 1 135.104 3.136l122.304-81.536c-.128-1.28-.768-2.368-.768-3.712a64 64 0 1 1 64 64 62.912 62.912 0 0 1-27.84-6.976l-114.88 76.608C634.368 407.168 640 426.816 640 448c0 21.184-5.632 40.832-14.72 58.368l114.88 76.608A62.912 62.912 0 0 1 768 576zM512 384a64 64 0 1 0 0 128 64 64 0 0 0 0-128z"/></svg>
