<svg class="icon" viewBox="0 0 1024 1024" xmlns="http://www.w3.org/2000/svg" width="128" height="128"><defs><style/></defs><path d="M508.928 589.824c-149.504 0-270.336-121.856-270.336-270.336s120.832-271.36 270.336-271.36 270.336 121.856 270.336 270.336-120.832 271.36-270.336 271.36zm0-463.872c-106.496 0-192.512 86.016-192.512 192.512S403.456 512 508.928 512c106.496 0 192.512-86.016 192.512-192.512s-86.016-193.536-192.512-193.536zm263.168 863.232H246.784c-97.28 0-176.128-78.848-176.128-176.128s78.848-176.128 176.128-176.128h525.312c97.28 0 176.128 78.848 176.128 176.128s-78.848 176.128-176.128 176.128zM246.784 711.68c-56.32 0-102.4 46.08-102.4 102.4s46.08 102.4 102.4 102.4h525.312c56.32 0 102.4-46.08 102.4-102.4s-46.08-102.4-102.4-102.4H246.784z"/><path d="M756.736 836.608h-93.184c-21.504 0-38.912-17.408-38.912-38.912s17.408-38.912 38.912-38.912h93.184c21.504 0 38.912 17.408 38.912 38.912s-17.408 38.912-38.912 38.912z"/></svg>
