<svg xmlns="http://www.w3.org/2000/svg" width="128" height="128" class="icon" viewBox="0 0 1024 1024"><defs/><path d="M1014.471 954.59L929.596 832.9l9.715-19.428c67.49-98.17 64.423-243.889-6.647-346.659-1.534-2.045-2.557-4.09-3.58-5.624-75.16-102.26-201.961-131.403-305.754-76.183-11.76 6.135-23.52 13.293-34.257 21.985-4.09 2.557-7.67 6.136-11.76 9.204-24.03 20.452-44.994 45.505-61.355 74.138-6.647 12.27-12.783 24.542-17.896 37.836-34.256 89.988-25.564 198.382 32.212 281.723 12.271 17.896 26.587 34.257 42.949 48.574 81.807 72.092 197.36 81.296 288.882 20.451l89.477 128.336c6.135 9.203 15.85 15.339 26.076 16.361 10.226 1.534 20.963-1.534 29.144-8.692 8.18-7.158 13.805-17.384 15.339-29.144 1.533-10.737-1.534-21.985-7.67-31.189zM850.345 810.403c-66.468 56.754-157.99 59.821-228.038 8.18-12.782-9.203-24.542-20.451-34.257-32.211-4.09-5.113-7.669-9.715-11.248-14.828-49.596-70.559-53.175-163.614-15.85-237.24 12.782-26.077 30.166-48.063 51.64-65.958 79.251-68.002 192.76-58.288 261.273 23.008 10.737 12.271 19.94 26.076 27.098 40.904 47.55 92.033 28.122 211.676-50.618 278.145zM712.807 287.86c82.318 0 159.013 27.098 222.925 72.604-22.497-99.703-43.46-188.157-54.71-224.97C852.39 38.346 794.615 2.555 712.808 2.555H596.742l44.483 292.462c23.52-5.113 47.55-7.158 71.582-7.158zM568.11 245.422h-96.124l-7.67 173.84c30.679-34.768 67.492-63.4 107.373-85.386l-3.58-88.454zM557.884 3.579h-75.672l-7.158 161.058h89.477L557.884 3.58zM18.467 745.981C7.218 784.328 1.083 818.073.06 847.217v14.828c2.045 67.49 36.814 104.304 104.816 104.304h176.908l55.22-312.913H43.52c-9.203 36.302-18.406 68.514-25.053 92.545zm161.058-626.338c-8.692 27.099-20.452 72.093-33.745 125.268h262.806L451.023 1.534H295.078C232.7 7.158 213.27 12.27 179.525 119.644zM65.506 566.516h286.326l40.903-233.662H123.794c-19.43 75.671-39.37 158.501-58.288 233.662z"/></svg>
