<svg t="1597110056671" class="icon" viewBox="0 0 1055 1024" version="1.1" xmlns="http://www.w3.org/2000/svg" p-id="10901" width="200" height="200"><path d="M998.213818 1023.00703H58.802424a34.629818 34.629818 0 0 1-35.964121-33.295515 34.753939 34.753939 0 0 1 35.995152-36.491636H116.053333V43.566545C116.053333 19.518061 135.292121 0 159.061333 0h463.965091c23.707152 0 42.914909 19.518061 42.914909 43.566545v909.653334h45.893819V369.074424c0-24.017455 19.238788-43.628606 42.914909-43.628606h189.036606c23.738182 0 42.97697 19.611152 42.976969 43.628606V953.250909h11.450182c18.990545 0 34.381576 15.608242 34.381576 34.878061 0 19.269818-15.39103 34.909091-34.381576 34.909091zM597.240242 69.725091H184.847515v883.494788h412.392727V69.725091z m320.760243 325.507879h-137.464243V953.250909h137.464243V395.23297zM264.998788 255.751758h252.028121c18.959515 0 34.350545 15.608242 34.350546 34.84703s-15.39103 34.84703-34.350546 34.84703H264.998788a34.598788 34.598788 0 0 1-34.350546-34.84703c0-19.238788 15.36-34.84703 34.350546-34.84703z m0 232.51006h252.028121c18.959515 0 34.350545 15.608242 34.350546 34.84703s-15.39103 34.878061-34.350546 34.878061H264.998788a34.598788 34.598788 0 0 1-34.350546-34.878061c0-19.238788 15.36-34.84703 34.350546-34.84703z m0 232.510061h252.028121c18.959515 0 34.350545 15.608242 34.350546 34.84703s-15.39103 34.878061-34.350546 34.878061H264.998788a34.753939 34.753939 0 0 1-32.147394-37.112243 34.691879 34.691879 0 0 1 32.147394-32.581818z" fill="#38BFD4" p-id="10902"></path></svg>