<svg class="icon" viewBox="0 0 1024 1024" xmlns="http://www.w3.org/2000/svg" width="128" height="128"><defs><style/></defs><path d="M95.086 292.571L512 504.686 928.914 292.57 512 87.771l-416.914 204.8zM153.6 621.714L65.829 577.83C36.57 563.2 21.943 541.257 21.943 512s14.628-51.2 43.886-65.829l87.771-43.885L65.829 358.4c-36.572-14.629-51.2-58.514-36.572-95.086 7.314-14.628 21.943-29.257 29.257-29.257l416.915-204.8c21.942-7.314 43.885-7.314 65.828 0l416.914 204.8c36.572 14.629 51.2 58.514 29.258 95.086-7.315 14.628-21.943 29.257-29.258 29.257L870.4 402.286l80.457 36.571c36.572 14.629 51.2 36.572 51.2 73.143 0 29.257-14.628 58.514-51.2 73.143L870.4 621.714l80.457 36.572c36.572 14.628 51.2 36.571 51.2 73.143 0 29.257-14.628 58.514-51.2 73.142l-402.286 197.486c-7.314 7.314-21.942 7.314-36.571 7.314s-21.943 0-36.571-7.314l-416.915-204.8c-29.257-14.628-36.571-36.571-36.571-65.828s14.628-51.2 43.886-65.829l87.771-43.886zm80.457 43.886L95.086 731.429 512 943.543l416.914-204.8-138.971-65.829L548.57 789.943c-7.314 7.314-21.942 7.314-36.571 7.314s-21.943 0-36.571-7.314L234.057 665.6zm555.886-219.429L548.57 563.2c-21.942 7.314-43.885 7.314-65.828 0L234.057 446.171 95.086 512 512 724.114 928.914 512l-138.971-65.829z"/></svg>
