<svg xmlns="http://www.w3.org/2000/svg" width="128" height="128" class="icon" viewBox="0 0 1024 1024"><defs><style/></defs><path d="M809.1 960H214.9C149.3 960 96 907.6 96 843.1V180.9C96 116.4 149.3 64 214.9 64h594.3C874.7 64 928 116.4 928 180.9v662.3c0 64.4-53.3 116.8-118.9 116.8zM214.9 141.9c-21.9 0-39.6 17.5-39.6 39v662.3c0 21.5 17.8 39 39.6 39h594.3c21.8 0 39.6-17.5 39.6-39V180.9c0-21.5-17.8-39-39.6-39H214.9z"/><path d="M631.5 551H313.2c-21.5 0-39-17.4-39-39 0-21.5 17.4-39 39-39h318.3c21.5 0 39 17.4 39 39 0 21.5-17.5 39-39 39zm79.3 194.7H313.2c-21.5 0-39-17.4-39-39 0-21.5 17.4-39 39-39h397.5c21.5 0 39 17.4 39 39s-17.4 39-38.9 39zM274.3 317.2a39.6 39 0 1 0 79.2 0 39.6 39 0 1 0-79.2 0zM472.4 317.2a39.6 39 0 1 0 79.2 0 39.6 39 0 1 0-79.2 0zM670.5 317.2a39.6 39 0 1 0 79.2 0 39.6 39 0 1 0-79.2 0z"/></svg>
