<svg xmlns="http://www.w3.org/2000/svg" width="128" height="128" class="icon" viewBox="0 0 1024 1024"><path d="M86.176 707.666v70.553s-2.495 132.86 122.397 180.41V626.807s-87.17 45.742-122.397 80.86zm183.574-98.213V819.05h205.904s0-160.718 111.864-209.597c0 0-43.904-10.869-46.56-13.179 0 0-34.015 37.646-106.469 38.974 0 0-48.654 3.293-106.784-38.974-.042 0-51.536 7.577-57.955 13.179zm6.84-151.013s31.807 141.008 152.049 142.227c0 0 99.37 11.56 149.157-142.227 0 0 30.716 3.355 30.716-50.444 0 0 9.314-46.725-44.54-33.708 0 0-26.542 12.662-144.01 13.006 0 0-74.782 2.775-125.454-11.396 0 0-42.337-12.08-49.16 14.171v34.936c-.002-.056 2.144 32.332 31.242 33.435zM204.86 301.814s8.669 51.535 201.9 57.72c0 0 144.656 4.976 200.303-28.868l-14.46-145.057s-39.567-82.822-144.24-100.523v-22.72h-44.536l-.357 23.075s-73.749 4.502-131.057 79.523c0 0-31.343 27.995-41.177 115.384l-26.376 21.466zM643.33 958.613V772.026s3.875-10.513 15.79-10.87h147.376s9.65 2.03 11.968 12.317v185.14h11.925s121.16-69.691 102.598-197.456c0 0-14.862-111.911-139.272-154.595l35.392-410.245s3.71-95.193-99.706-101.397c0 0-90.347-2.428-99.37 101.397l71.72-11.916 28.396-27.651 34.18 34.644-33.78 34.19-34.18-34.19 9.83-9.822-74.847 10.751 39.63 408.515s-138.07 49.28-144.655 189.133c0 0-7.467 94.093 105.953 168.712h11.042v-.071h.01zm0 0"/></svg>
