<svg xmlns="http://www.w3.org/2000/svg" width="128.125" height="128" class="icon" viewBox="0 0 1025 1024"><defs><style/></defs><path d="M944.262 213.192c0 18.877 17.767 34.145 39.696 34.145 21.939 0 39.705-15.268 39.705-34.145V39.839c0-9.058-4.178-17.746-11.627-24.151-7.445-6.4-17.541-10-28.078-9.995H782.435c-21.924 0-39.696 15.273-39.696 34.146 0 18.882 17.772 34.155 39.696 34.155H891.5L543.955 373.12l-107.55-92.503c-7.445-6.405-17.542-10.01-28.068-10.01h-.077c-10.552-.005-20.644 3.625-28.073 10.077l-368.6 318.673c-15.42 13.333-15.42 35.021.154 48.292 7.44 6.37 17.506 9.938 27.992 9.938 10.577.016 20.715-3.615 28.15-10.07l340.551-294.4 107.448 92.44c14.9 12.8 41.262 12.8 56.136 0l372.27-320.393v88.023h-.026v.005zm-85.16 154.148h166.379V1024h-166.38V367.34zM581.023 502.37h166.364v521.615H581.024V502.369zM302.952 634.137h166.38v389.847h-166.38V634.138zM24.864 778.552h166.38V1024H24.864V778.552z"/></svg>
