<svg t="1597109796843" class="icon" viewBox="0 0 1024 1024" version="1.1" xmlns="http://www.w3.org/2000/svg" p-id="6128" width="200" height="200"><path d="M849.92 204.9536l-30.38208-1.2288c-2.0224-0.08192-201.17504-9.1648-287.19616-99.2768l-21.504-22.528-22.87616 21.09952C373.83168 208.30208 203.50976 203.776 201.79968 203.71968L168.96 202.50112v414.61248c0 163.99872 293.7344 304.17408 327.22944 319.616L507.79136 942.08l12.06272-4.20352C533.3248 933.18144 849.92 820.5824 849.92 617.1136z m-205.58848 337.52576h-103.22944v103.28064a31.66208 31.66208 0 1 1-63.32416 0v-103.28064H374.56896a31.68256 31.68256 0 0 1 0-63.36512h103.20896V375.83872a31.66208 31.66208 0 1 1 63.32416 0v103.27552h103.20896a31.68256 31.68256 0 0 1 0 63.36512z" fill="#5288F5" p-id="6129"></path></svg>