<svg t="1574653385675" class="icon" viewBox="0 0 1024 1024" version="1.1" xmlns="http://www.w3.org/2000/svg" p-id="1378" width="200" height="200"><path d="M512 1015.808c-2.56 0-5.12-0.512-7.168-1.536l-16.384-7.68c-265.728-122.88-361.984-334.848-396.288-491.008-15.36-69.632-21.504-141.824-19.456-215.04 1.536-55.296 8.192-91.136 9.216-95.232l6.144-31.744c1.536-8.192 8.704-13.824 16.896-13.824h32.256c110.592 0 195.584-31.744 247.296-58.368 56.32-29.696 87.04-59.392 87.552-59.904l27.648-28.16c3.072-3.072 7.68-5.12 12.288-5.12 4.608 0 8.704 1.536 12.288 5.12l27.648 27.648c1.024 1.024 31.744 30.72 88.576 59.392 51.712 26.624 136.704 58.88 247.296 58.88h32.256c8.192 0 15.36 5.632 16.896 13.824l6.144 31.744c1.024 5.632 26.112 143.36-10.24 310.272-34.304 156.672-131.072 368.64-396.288 491.008l-16.384 7.68c-3.072 1.536-5.632 2.048-8.192 2.048zM146.432 216.576l-3.072 16.384c-1.024 5.12-23.04 127.488 9.216 275.456 30.208 138.24 115.712 325.632 350.72 434.176l8.704 4.096 8.704-4.096c235.008-108.544 320.512-295.936 350.72-434.176 32.768-148.48 10.24-270.336 9.216-275.456l-3.072-16.384H860.16c-48.128 0-95.744-6.144-140.8-18.432-36.352-9.728-71.168-23.552-104.448-40.448-57.344-29.696-88.064-59.904-88.576-60.416l-14.336-14.336-14.336 14.336c-2.048 2.048-32.256 31.232-88.064 60.416-32.768 16.896-67.584 30.72-104.448 40.448-45.568 12.288-93.184 18.432-141.824 18.432h-16.896z" p-id="1379"></path><path d="M746.496 370.176c0 13.312-10.752 24.064-24.064 24.064H301.568c-13.312 0-24.064-10.752-24.064-24.064s10.752-24.064 24.064-24.064h420.864c13.312 0 24.064 10.752 24.064 24.064z m-107.52 141.312c0 13.312-10.752 24.064-24.064 24.064H301.568c-13.312 0-24.064-10.752-24.064-24.064s10.752-24.064 24.064-24.064h313.344c13.312 0 24.064 10.752 24.064 24.064z m-79.872 142.336c0 13.312-10.752 24.064-24.064 24.064H301.568c-13.312 0-24.064-10.752-24.064-24.064s10.752-24.064 24.064-24.064h232.96c13.312-0.512 24.576 10.752 24.576 24.064z" p-id="1380"></path></svg>