<svg xmlns="http://www.w3.org/2000/svg" width="217.75" height="128" class="icon" viewBox="0 0 1742 1024"><defs><style/></defs><path d="M370.356 612.749l1002.835-1.489c28.012 0 50.855 21.165 50.882 47.256l.27 187.1c0 97.622-85.037 177.139-189.832 177.274l-724.31 1.002c-104.823.135-190.186-79.138-190.321-176.761l-.27-187.1c-.028-25.982 22.734-47.255 50.746-47.282zm969.085 77.54l-935.092 1.3.217 155.542c0 54.13 47.418 98.083 105.553 98.002l724.256-.974c58.109 0 105.337-44.17 105.256-98.3z"/><path d="M50.72 2.3L1691.122.055a50.882 50.882 0 0 1 50.882 50.747l.298 215.003a425.974 425.974 0 0 1-424.215 425.38l-892.33 1.217A425.974 425.974 0 0 1 .272 268.131L.027 53.129A50.882 50.882 0 0 1 50.72 2.301zm1606.652 82.467L84.713 86.932l.244 181.119a340.557 340.557 0 0 0 340.638 339.664l892.33-1.218a340.557 340.557 0 0 0 339.718-340.639z"/><path d="M1676.91 285.635L65.71 287.88l-.148-107.905 1611.197-2.249zm-415.43 538.358l-160.277.225-.187-132.672 160.278-.225zm-623.008-.219l-160.279.222-.184-132.672 160.278-.222zm392.581.514l-318.04.447-.189-135.73 318.04-.445z"/></svg>
