<svg t="1587000053078" class="icon" viewBox="0 0 1024 1024" version="1.1" xmlns="http://www.w3.org/2000/svg" p-id="2164" width="128" height="128"><path d="M933.376 839.168c0 108.544-2.048 110.08-100.864 110.08h-645.12c-112.128 0-112.128 3.072-112.128-98.304V207.36c0-102.4 0-100.352 112.128-100.352h375.296v-58.88H184.32c-139.776 0-168.448 18.432-168.448 159.232v642.048c0 158.72 28.672 159.232 168.448 159.232h651.776c139.776 0 157.696-29.696 157.696-169.984v-348.672h-59.904l-0.512 349.184z m54.272-717.312l-85.504-85.504c-28.16-28.16-53.248-28.16-81.408 0l-494.592 493.056-2.048 2.048c-4.608 3.584-8.192 8.704-9.728 14.336l-21.504 137.728c-4.096 14.848 4.608 30.72 19.968 34.816 3.072 1.024 6.656 1.024 9.728 1.024 2.56 0 4.608 0 7.168-0.512l154.112-17.92c7.168-1.024 12.8-5.12 16.896-10.24 1.024-0.512 1.536-1.536 2.56-2.048l484.864-485.888c27.648-27.648 27.648-52.736-0.512-80.896z m-533.504 531.968l-92.16 14.848s-10.24 2.56-14.848-2.048c-3.072-3.584 1.024-12.8 1.024-12.8l23.04-81.408 82.944 81.408z m42.496-41.984l-84.48-82.432 346.112-343.552 83.456 81.408-345.088 344.576z m441.344-440.832l-54.272 53.76-83.456-81.408 55.296-54.784c6.144-6.144 15.36-6.144 21.504 0l60.928 60.928c5.632 6.144 5.632 15.872 0 21.504z" p-id="2165" fill="#bfbfbf"></path></svg>