<svg xmlns="http://www.w3.org/2000/svg" width="128.125" height="128" class="icon" viewBox="0 0 1025 1024"><defs><style/></defs><path d="M236.896 216.416c0 106.048 82.464 192.064 184.224 192.064 101.696 0 184.192-86.016 184.192-192.064 0-106.016-82.496-192-184.192-192-101.792 0-184.224 85.984-184.224 192zm575.648 617.472c-13.92-30.944-42.496-122.048-75.2-122.048-32.64 0-35.296 12.32-35.296 12.32l35.296 94.592-180.736-15.776-76.416-180.736C405.504 438.016 330.72 417.248 257.76 417.248c-35.328 0-109.504 4.224-166.336 76.064C34.72 565.12-.064 962.88-.064 962.88h346.048L221.632 721.088l52.512-33.184s9.312 20.032 70.272 149.824c61.056 129.888 102.72 147.584 102.72 147.584h325.216c47.84 0 86.464-15.456 86.464-77.312 0-61.824-46.272-74.112-46.272-74.112zm0 0"/><path d="M690.4 474.688s-33.568 64.928-60.16 92.704c-26.688 27.776-78.816 98.464-38.24 155.232L711.328 526.72l249.12 113.632-91.488 136.704s-12.8 54.464 4.608 56.768c17.376 2.304 151.808-216.672 151.808-216.672L690.4 474.688zm0 0"/></svg>
