<svg xmlns="http://www.w3.org/2000/svg" width="128" height="128" class="icon" viewBox="0 0 1024 1024"><defs><style/></defs><path d="M372.894 1024H94.524A94.523 94.523 0 0 1 0 929.477V94.523A94.523 94.523 0 0 1 94.523 0h693.17a94.523 94.523 0 0 1 94.522 94.523v236.308a31.508 31.508 0 0 1-63.015 0V94.523a31.508 31.508 0 0 0-31.508-31.508H94.523a31.508 31.508 0 0 0-31.508 31.508v834.954a31.508 31.508 0 0 0 31.508 31.508h278.37a31.508 31.508 0 0 1 0 63.015z"/><path d="M661.662 283.57h-488.37a31.508 31.508 0 0 1 0-63.016h488.37a31.508 31.508 0 0 1 0 63.015zM330.83 519.876H173.292a31.508 31.508 0 0 1 0-63.015h157.539a31.508 31.508 0 0 1 0 63.015zm-63.016 236.308h-94.523a31.508 31.508 0 0 1 0-63.016h94.523a31.508 31.508 0 0 1 0 63.016zM708.923 1024A315.077 315.077 0 1 1 1024 708.923 315.077 315.077 0 0 1 708.923 1024zm0-567.138a252.062 252.062 0 1 0 252.062 252.061 252.062 252.062 0 0 0-252.062-252.061z"/><path d="M756.185 850.708a32.61 32.61 0 0 1-12.13-2.363 31.508 31.508 0 0 1-19.378-29.145v-63.015H567.138a31.508 31.508 0 0 1 0-63.016h189.047a31.508 31.508 0 0 1 31.507 31.508v18.432l26.31-26.309-64.276-64.433a31.508 31.508 0 0 1 44.425-44.426l86.647 86.646a31.508 31.508 0 0 1 0 44.426l-102.4 102.4a31.508 31.508 0 0 1-22.213 9.295z"/></svg>
