<svg xmlns="http://www.w3.org/2000/svg" width="128" height="128" class="icon" viewBox="0 0 1024 1024"><defs><style/></defs><path d="M805.892 182.022l-1.118-1.549a67.957 67.957 0 0 0-53.247-27.183 66.409 66.409 0 0 0-56.172 29.936c-22.366 32.344-40.86 59.613-56.86 83.613C596.775 199.656 546.28 123.87 486.58 35.87l-1.033-1.462A85.075 85.075 0 0 0 419.398 0a84.215 84.215 0 0 0-69.42 36.903c-35.01 50.753-66.666 97.205-95.14 140.301-12.989-30.451-35.526-65.634-68.816-114.408l-1.033-1.463a49.806 49.806 0 0 0-81.29 1.635C52.946 136.516 22.15 184.774 22.15 235.527A123.01 123.01 0 0 0 142.58 358.28C77.29 475.785 47.957 564.215 47.957 652.817a370.667 370.667 0 0 0 694.108 181.248h8.602a251.01 251.01 0 0 0 250.752-250.753c.516-101.334-62.28-204.99-195.527-401.29zm-706.15 53.935c0-21.247 14.021-48.344 45.161-95.226 30.882 47.226 45.764 75.441 45.764 95.226a45.505 45.505 0 0 1-91.011 0zM419.14 946.581a293.677 293.677 0 0 1-293.42-293.334c0-133.419 84.904-277.85 288.43-572.645a6.28 6.28 0 0 1 4.646-2.753 7.828 7.828 0 0 1 4.559 2.753c203.87 300.387 289.118 446.452 289.118 572.731a293.677 293.677 0 0 1-293.42 293.248zm356.3-191.14a369.892 369.892 0 0 0 14.452-102.28c0-92.129-34.924-186.58-107.268-312.774 18.064-27.87 39.914-60.215 68.3-101.591C873.248 419.44 924.517 508.817 924.517 583.914a173.42 173.42 0 0 1-149.075 171.527z"/><path d="M419.054 894.452a242.925 242.925 0 0 0 242.925-242.925s-79.054-75.957-242.925 0-242.925 0-242.925 0a242.925 242.925 0 0 0 242.925 242.925z"/><path d="M476.602 596.817c-66.322 10.15-110.71 52.731-187.527 56.516-55.57 0-100.559-15.914-100.559-35.613s52.215-37.849 107.7-37.849a1252.731 1252.731 0 0 1 180.386 16.946z"/></svg>
